<svg width="906" height="255" viewBox="0 0 906 255" fill="none" xmlns="http://www.w3.org/2000/svg">
<path d="M831.197 54.5462C854.757 37.3122 842.567 0 813.376 0H31.9996C14.8787 0 0.999573 13.8792 0.999573 31V224C0.999573 241.121 14.8787 255 31.9996 255H874.765C891.885 255 905.765 241.121 905.765 224L905.765 141.613C905.765 124.492 891.885 110.613 874.765 110.613H815.217C801.343 110.613 790.095 99.2946 790.095 85.42V85.42C790.095 71.6233 801.279 60.3685 815.076 60.3685V60.3685C820.379 60.3685 825.545 58.6808 829.825 55.5499L831.197 54.5462Z" fill="#0CB6B5"/>
</svg>
