<?xml version="1.0" standalone="no"?>
<!DOCTYPE svg PUBLIC "-//W3C//DTD SVG 20010904//EN"
 "http://www.w3.org/TR/2001/REC-SVG-20010904/DTD/svg10.dtd">
<svg version="1.0" xmlns="http://www.w3.org/2000/svg"
 width="185.000000pt" height="185.000000pt" viewBox="0 0 185.000000 185.000000"
 preserveAspectRatio="xMidYMid meet">
<metadata>
Created by potrace 1.14, written by Peter Selinger 2001-2017
</metadata>
<g transform="translate(0.000000,185.000000) scale(0.100000,-0.100000)"
fill="#000000" stroke="none">
<path d="M338 1096 c-48 -28 -90 -55 -94 -58 -6 -7 -6 -219 1 -226 2 -2 17 4
34 14 30 18 31 20 31 94 l0 76 68 38 c63 36 67 40 67 74 -1 20 -5 37 -10 38
-6 1 -49 -21 -97 -50z"/>
<path d="M487 1143 c-2 -5 -5 -22 -5 -39 0 -26 6 -34 44 -54 24 -14 44 -28 44
-32 0 -4 -31 -26 -70 -50 -59 -36 -70 -47 -70 -70 0 -17 7 -31 19 -37 15 -9
32 -1 89 39 39 28 73 50 75 50 3 0 3 -20 2 -45 -2 -46 7 -61 51 -83 21 -11 21
-10 20 103 l-1 114 -94 56 c-102 60 -98 58 -104 48z"/>
<path d="M203 1073 c-22 -8 -15 -43 7 -43 13 0 20 7 20 19 0 22 -9 30 -27 24z"/>
<path d="M793 1069 c-79 -29 -57 -152 27 -152 36 0 53 13 44 36 -4 12 -13 15
-29 11 -17 -4 -26 0 -35 16 -15 28 4 54 36 46 15 -4 24 -1 28 11 12 30 -29 48
-71 32z"/>
<path d="M923 1065 c-32 -14 -43 -32 -43 -71 0 -38 16 -61 51 -73 67 -23 125
52 89 119 -15 28 -61 40 -97 25z m52 -70 c0 -23 -4 -30 -20 -30 -21 0 -31 25
-21 51 11 28 41 12 41 -21z"/>
<path d="M1523 1069 c-28 -10 -53 -48 -53 -79 0 -24 25 -56 56 -73 14 -8 74
11 74 23 0 14 -23 25 -46 22 -24 -3 -38 21 -28 50 4 15 12 19 30 15 25 -4 50
15 40 31 -8 14 -50 20 -73 11z"/>
<path d="M1050 995 c0 -73 1 -75 25 -75 21 0 25 5 25 28 l1 27 15 -27 c10 -19
23 -28 39 -28 14 0 25 3 26 8 1 12 1 85 0 115 -1 23 -5 28 -23 25 -17 -2 -23
-9 -22 -25 1 -30 -10 -29 -24 2 -8 17 -20 25 -37 25 -24 0 -25 -1 -25 -75z"/>
<path d="M1208 1068 c0 -2 -2 -36 -3 -75 -1 -70 0 -73 22 -73 21 0 28 10 24
33 -2 16 18 6 24 -13 4 -14 15 -20 36 -20 l29 0 0 75 c0 73 -1 75 -24 75 -19
0 -25 -6 -28 -27 l-4 -28 -14 28 c-9 18 -21 27 -37 27 -12 0 -24 -1 -25 -2z"/>
<path d="M1359 1060 c0 -5 -1 -30 -1 -55 0 -90 -3 -85 52 -85 43 0 50 3 50 20
0 15 -7 20 -27 20 -21 0 -24 3 -13 9 8 6 18 7 22 5 4 -3 8 6 8 20 0 19 -4 24
-20 21 -11 -2 -20 0 -20 6 0 5 11 9 25 9 18 0 25 5 25 20 0 17 -7 20 -50 20
-27 0 -50 -4 -51 -10z"/>
<path d="M1610 1050 c0 -11 7 -20 15 -20 12 0 15 -13 15 -55 0 -52 1 -55 25
-55 24 0 25 3 25 55 0 42 3 55 15 55 8 0 15 9 15 20 0 18 -7 20 -55 20 -48 0
-55 -2 -55 -20z"/>
<path d="M740 853 c0 -14 6 -23 15 -23 11 0 15 -13 15 -54 0 -49 2 -53 23 -52
19 1 22 7 25 54 2 37 7 52 18 52 14 0 21 39 7 41 -5 0 -29 1 -56 2 -43 2 -47
0 -47 -20z"/>
<path d="M864 800 c1 -68 3 -75 21 -75 13 0 21 8 23 23 2 12 8 22 13 22 5 0
12 0 16 0 4 0 8 -6 9 -13 0 -6 2 -18 2 -25 1 -8 11 -12 24 -10 21 3 23 8 23
73 0 68 -1 70 -26 73 -23 3 -26 0 -24 -22 2 -13 -3 -27 -10 -30 -18 -7 -25 3
-25 33 0 21 -5 26 -24 26 -23 0 -24 -2 -22 -75z"/>
<path d="M1022 866 c-3 -6 -7 -39 -7 -74 -1 -53 2 -63 19 -68 12 -4 22 0 29
11 7 14 11 15 18 4 7 -12 59 -22 59 -11 0 3 -7 13 -16 23 -14 16 -14 19 0 42
13 19 14 30 7 51 -6 14 -14 26 -18 27 -5 0 -25 1 -46 3 -21 2 -41 -2 -45 -8z
m62 -47 c-3 -5 -10 -7 -15 -3 -5 3 -7 10 -3 15 3 5 10 7 15 3 5 -3 7 -10 3
-15z"/>
<path d="M1156 870 c-3 -5 0 -130 3 -140 2 -8 41 -10 42 -2 1 4 2 39 3 77 2
68 1 70 -22 70 -13 0 -25 -2 -26 -5z"/>
<path d="M1231 871 c-9 -6 -5 -26 15 -79 22 -59 30 -71 46 -68 14 2 26 18 38
48 31 81 32 95 10 101 -22 6 -40 -18 -40 -53 0 -29 -17 -16 -25 19 -7 31 -24
44 -44 32z"/>
<path d="M1383 871 c-7 -5 -9 -93 -4 -136 0 -6 22 -11 49 -10 41 0 47 3 48 22
1 17 -3 20 -22 17 -13 -2 -24 0 -24 6 0 5 9 10 20 10 30 0 27 40 -2 41 -22 1
-22 1 2 8 23 6 42 40 23 42 -4 0 -25 1 -45 3 -20 2 -41 0 -45 -3z"/>
<path d="M288 792 c-16 -9 -28 -19 -28 -22 1 -10 195 -114 208 -112 7 2 56 28
109 59 88 52 94 57 77 70 -37 27 -59 25 -119 -11 -32 -20 -64 -36 -71 -36 -7
0 -40 16 -73 35 -68 40 -67 40 -103 17z"/>
<path d="M445 630 c-8 -13 3 -30 20 -30 14 0 27 24 18 34 -10 9 -31 7 -38 -4z"/>
</g>
</svg>
